<svg width="57" height="57" viewBox="0 0 57 57" fill="none" xmlns="http://www.w3.org/2000/svg">
<circle cx="28.3654" cy="28.3655" r="28.3218" transform="rotate(90.0884 28.3654 28.3655)" fill="#2A43CC"/>
<path d="M27.125 37.8875C24.7722 37.6736 22.7743 36.7014 21.1312 34.9708C19.4882 33.2403 18.6667 31.1597 18.6667 28.7292C18.6667 27.4458 18.9097 26.2549 19.3958 25.1562C19.8819 24.0576 20.5528 23.0806 21.4083 22.225L28 15.75L34.5917 22.225C35.3305 22.9639 35.9333 23.7903 36.4 24.7042C36.8667 25.6181 37.1583 26.6097 37.275 27.6792H35.525C35.4278 26.8625 35.1993 26.1139 34.8396 25.4333C34.4798 24.7528 34.0083 24.1208 33.425 23.5375L28 18.2L22.575 23.5375C21.875 24.2375 21.3403 25.0153 20.9708 25.8708C20.6014 26.7264 20.4167 27.6792 20.4167 28.7292C20.4167 30.6736 21.0632 32.3361 22.3562 33.7167C23.6493 35.0972 25.2389 35.8944 27.125 36.1083V37.8875ZM29.575 31.7917L28.9917 30.45C29.4778 30.1972 29.9785 29.9931 30.4937 29.8375C31.009 29.6819 31.5389 29.6042 32.0833 29.6042C32.5305 29.6042 32.9632 29.6576 33.3812 29.7646C33.7993 29.8715 34.2125 30.0028 34.6208 30.1583C34.9708 30.3139 35.3354 30.45 35.7146 30.5667C36.0937 30.6833 36.4778 30.7417 36.8667 30.7417C37.3139 30.7417 37.7465 30.6736 38.1646 30.5375C38.5826 30.4014 38.9861 30.2264 39.375 30.0125L39.9583 31.3542C39.4722 31.6069 38.9715 31.8111 38.4562 31.9667C37.941 32.1222 37.4111 32.2 36.8667 32.2C36.4194 32.2 35.9868 32.1465 35.5687 32.0396C35.1507 31.9326 34.7375 31.8014 34.3292 31.6458C33.9792 31.4903 33.6146 31.3542 33.2354 31.2375C32.8562 31.1208 32.4722 31.0625 32.0833 31.0625C31.6361 31.0625 31.2035 31.1306 30.7854 31.2667C30.3674 31.4028 29.9639 31.5778 29.575 31.7917ZM29.575 35.5833L28.9917 34.2417C29.4778 33.9889 29.9785 33.7847 30.4937 33.6292C31.009 33.4736 31.5389 33.3958 32.0833 33.3958C32.5305 33.3958 32.9632 33.4493 33.3812 33.5562C33.7993 33.6632 34.2125 33.7944 34.6208 33.95C34.9708 34.1056 35.3354 34.2417 35.7146 34.3583C36.0937 34.475 36.4778 34.5333 36.8667 34.5333C37.3139 34.5333 37.7465 34.4653 38.1646 34.3292C38.5826 34.1931 38.9861 34.0181 39.375 33.8042L39.9583 35.1458C39.4722 35.3986 38.9715 35.6028 38.4562 35.7583C37.941 35.9139 37.4111 35.9917 36.8667 35.9917C36.4194 35.9917 35.9868 35.9382 35.5687 35.8312C35.1507 35.7243 34.7375 35.5931 34.3292 35.4375C33.9792 35.2819 33.6146 35.1458 33.2354 35.0292C32.8562 34.9125 32.4722 34.8542 32.0833 34.8542C31.6361 34.8542 31.2035 34.9222 30.7854 35.0583C30.3674 35.1944 29.9639 35.3694 29.575 35.5833ZM29.575 39.375L28.9917 38.0333C29.4778 37.7806 29.9785 37.5764 30.4937 37.4208C31.009 37.2653 31.5389 37.1875 32.0833 37.1875C32.5305 37.1875 32.9632 37.241 33.3812 37.3479C33.7993 37.4549 34.2125 37.5861 34.6208 37.7417C34.9708 37.8972 35.3354 38.0333 35.7146 38.15C36.0937 38.2667 36.4778 38.325 36.8667 38.325C37.3139 38.325 37.7465 38.2569 38.1646 38.1208C38.5826 37.9847 38.9861 37.8097 39.375 37.5958L39.9583 38.9375C39.4722 39.1903 38.9715 39.3944 38.4562 39.55C37.941 39.7056 37.4111 39.7833 36.8667 39.7833C36.4194 39.7833 35.9868 39.7299 35.5687 39.6229C35.1507 39.516 34.7375 39.3847 34.3292 39.2292C33.9792 39.0736 33.6146 38.9375 33.2354 38.8208C32.8562 38.7042 32.4722 38.6458 32.0833 38.6458C31.6361 38.6458 31.2035 38.7139 30.7854 38.85C30.3674 38.9861 29.9639 39.1611 29.575 39.375Z" fill="white"/>
</svg>
