<svg width="44" height="44" viewBox="0 0 44 44" fill="none" xmlns="http://www.w3.org/2000/svg">
<circle cx="21.5331" cy="21.5332" r="21.5" transform="rotate(90.0884 21.5331 21.5332)" fill="white"/>
<g clip-path="url(#clip0_553_4737)">
<path d="M17.1085 23.6783L15.9928 22.5627C16.8192 21.7363 17.684 21.1165 18.5871 20.7033C19.4902 20.2901 20.4612 20.0835 21.5001 20.0835C22.539 20.0835 23.51 20.2901 24.4131 20.7033C25.3163 21.1165 26.181 21.7363 27.0074 22.5627L25.8918 23.6783C25.1716 22.9581 24.4456 22.4446 23.7137 22.1377C22.9817 21.8307 22.2439 21.6772 21.5001 21.6772C20.7564 21.6772 20.0185 21.8307 19.2866 22.1377C18.5546 22.4446 17.8286 22.9581 17.1085 23.6783ZM14.1157 20.6856L13.0001 19.57C14.098 18.4484 15.376 17.5453 16.834 16.8606C18.292 16.1759 19.8473 15.8335 21.5001 15.8335C23.1529 15.8335 24.7083 16.1759 26.1663 16.8606C27.6243 17.5453 28.9022 18.4484 30.0001 19.57L28.8845 20.6856C27.8456 19.6939 26.7093 18.9029 25.4756 18.3127C24.242 17.7224 22.9168 17.4272 21.5001 17.4272C20.0835 17.4272 18.7583 17.7224 17.5246 18.3127C16.2909 18.9029 15.1546 19.6939 14.1157 20.6856ZM21.5001 28.07L24.121 25.4314C23.7786 25.0891 23.3861 24.8205 22.9434 24.6257C22.5006 24.4309 22.0196 24.3335 21.5001 24.3335C20.9807 24.3335 20.4996 24.4309 20.0569 24.6257C19.6142 24.8205 19.2216 25.0891 18.8793 25.4314L21.5001 28.07Z" fill="#181818"/>
</g>
<defs>
<clipPath id="clip0_553_4737">
<rect width="17" height="17" fill="white" transform="translate(13.0001 13)"/>
</clipPath>
</defs>
</svg>
