<svg xmlns="http://www.w3.org/2000/svg" xmlns:svgjs="http://svgjs.com/svgjs" xmlns:xlink="http://www.w3.org/1999/xlink" width="44" height="44"><svg xmlns="http://www.w3.org/2000/svg" width="44" height="44" fill="none" viewBox="0 0 44 44"><circle cx="21.533" cy="21.533" r="21.5" fill="#2a43cc" class="colorfff svgShape" transform="rotate(90.088 21.533 21.533)"/><path fill="#fff" d="M31.5553 21.7781L31.1001 20.7885L30.1105 20.3333L31.1001 19.8781L31.5553 18.8885L32.0105 19.8781L33.0001 20.3333L32.0105 20.7885L31.5553 21.7781ZM29.0418 18.3146L28.3491 16.85L26.8845 16.1573L28.3491 15.4646L29.0418 14L29.7345 15.4646L31.1991 16.1573L29.7345 16.85L29.0418 18.3146ZM21.1251 31.4167C20.6765 31.4167 20.2972 31.2616 19.9871 30.9516C19.677 30.6415 19.522 30.2622 19.522 29.8135H22.7282C22.7282 30.2622 22.5732 30.6415 22.2631 30.9516C21.9531 31.2616 21.5737 31.4167 21.1251 31.4167ZM17.9189 28.5865V27.399H24.3314V28.5865H17.9189ZM18.0178 26.1917C17.147 25.6243 16.4576 24.9151 15.9496 24.0641C15.4416 23.213 15.1876 22.2531 15.1876 21.1844C15.1876 19.5747 15.7748 18.1826 16.9491 17.0083C18.1234 15.834 19.5154 15.2469 21.1251 15.2469C22.7348 15.2469 24.1269 15.834 25.3012 17.0083C26.4755 18.1826 27.0626 19.5747 27.0626 21.1844C27.0626 22.2531 26.8119 23.213 26.3105 24.0641C25.8092 24.9151 25.1164 25.6243 24.2324 26.1917H18.0178ZM18.4532 25.0042H23.8168C24.4501 24.5819 24.9515 24.0344 25.321 23.3615C25.6904 22.6885 25.8751 21.9628 25.8751 21.1844C25.8751 19.8781 25.41 18.7599 24.4798 17.8297C23.5496 16.8995 22.4314 16.4344 21.1251 16.4344C19.8189 16.4344 18.7006 16.8995 17.7704 17.8297C16.8402 18.7599 16.3751 19.8781 16.3751 21.1844C16.3751 21.9628 16.5598 22.6885 16.9293 23.3615C17.2987 24.0344 17.8067 24.5819 18.4532 25.0042Z" class="color181818 svgShape"/></svg></svg>