<svg xmlns="http://www.w3.org/2000/svg" xmlns:svgjs="http://svgjs.com/svgjs" xmlns:xlink="http://www.w3.org/1999/xlink" width="32" height="32"><svg xmlns="http://www.w3.org/2000/svg" width="32" height="32" fill="none" viewBox="0 0 32 32"><circle cx="15.514" cy="15.514" r="15.49" fill="#2a43cc" class="colorfff svgShape" transform="rotate(90.088 15.514 15.514)"/><path fill="#fff" d="M14.9042 17.6623L17.9917 14.8123L17.423 14.2998L14.9448 16.5873L13.5771 15.3248L12.9813 15.8748L14.9042 17.6623ZM15.5001 20.9873C14.2362 20.6956 13.198 20.0186 12.3855 18.9561C11.573 17.8936 11.1667 16.729 11.1667 15.4623V12.4873L15.5001 10.9873L19.8334 12.4873V15.4623C19.8334 16.729 19.4271 17.8936 18.6146 18.9561C17.8021 20.0186 16.7639 20.6956 15.5001 20.9873ZM15.5001 20.2123C16.5382 19.8956 17.3846 19.2977 18.0391 18.4186C18.6936 17.5394 19.0209 16.554 19.0209 15.4623V13.0123L15.5001 11.7873L11.9792 13.0123V15.4623C11.9792 16.554 12.3065 17.5394 12.961 18.4186C13.6155 19.2977 14.4619 19.8956 15.5001 20.2123Z" class="color181818 svgShape"/></svg></svg>