<svg width="32" height="32" viewBox="0 0 32 32" fill="none" xmlns="http://www.w3.org/2000/svg">
<circle cx="15.5139" cy="15.514" r="15.4901" transform="rotate(90.0884 15.5139 15.514)" fill="white"/>
<path d="M11.9792 16.5833C11.9792 17.1521 12.1079 17.687 12.3652 18.188C12.6224 18.6891 12.9813 19.1066 13.4417 19.4406C13.4056 19.3323 13.3785 19.2217 13.3605 19.1089C13.3424 18.996 13.3334 18.8854 13.3334 18.7771C13.3334 18.4882 13.3876 18.2174 13.4959 17.9646C13.6042 17.7118 13.7622 17.4816 13.9698 17.274L15.5001 15.7708L17.0303 17.274C17.2379 17.4816 17.3959 17.7118 17.5042 17.9646C17.6126 18.2174 17.6667 18.4882 17.6667 18.7771C17.6667 18.8854 17.6577 18.996 17.6396 19.1089C17.6216 19.2217 17.5945 19.3323 17.5584 19.4406C18.0188 19.1066 18.3777 18.6891 18.6349 18.188C18.8922 17.687 19.0209 17.1521 19.0209 16.5833C19.0209 16.0958 18.9171 15.6196 18.7094 15.1547C18.5018 14.6898 18.2039 14.2632 17.8157 13.875C17.6261 14.0104 17.4275 14.1165 17.2198 14.1932C17.0122 14.27 16.8046 14.3083 16.5969 14.3083C16.0462 14.3083 15.5903 14.121 15.2292 13.7464C14.8681 13.3717 14.6876 12.9 14.6876 12.3312V12.0604C14.2723 12.3583 13.8976 12.6878 13.5636 13.049C13.2296 13.4101 12.9452 13.787 12.7105 14.1797C12.4757 14.5724 12.2952 14.9741 12.1688 15.3849C12.0424 15.7957 11.9792 16.1951 11.9792 16.5833ZM15.5001 16.9083L14.5386 17.8562C14.4122 17.9826 14.3152 18.1226 14.2474 18.276C14.1797 18.4295 14.1459 18.5965 14.1459 18.7771C14.1459 19.1472 14.2768 19.4609 14.5386 19.7182C14.8004 19.9755 15.1209 20.1042 15.5001 20.1042C15.8792 20.1042 16.1997 19.9755 16.4615 19.7182C16.7233 19.4609 16.8542 19.1472 16.8542 18.7771C16.8542 18.5965 16.8204 18.4295 16.7527 18.276C16.6849 18.1226 16.5879 17.9826 16.4615 17.8562L15.5001 16.9083ZM15.5001 10.625V12.4125C15.5001 12.7194 15.6061 12.9767 15.8183 13.1844C16.0304 13.392 16.29 13.4958 16.5969 13.4958C16.7594 13.4958 16.9106 13.462 17.0506 13.3943C17.1905 13.3266 17.3146 13.225 17.423 13.0896L17.6667 12.7917C18.3348 13.1708 18.8629 13.699 19.2511 14.376C19.6393 15.0531 19.8334 15.7889 19.8334 16.5833C19.8334 17.7931 19.4136 18.8177 18.574 19.6573C17.7344 20.4969 16.7098 20.9167 15.5001 20.9167C14.2903 20.9167 13.2657 20.4969 12.4261 19.6573C11.5865 18.8177 11.1667 17.7931 11.1667 16.5833C11.1667 15.4278 11.5549 14.3151 12.3313 13.2453C13.1077 12.1755 14.1639 11.3021 15.5001 10.625Z" fill="#181818"/>
</svg>
