<svg width="17" height="17" viewBox="0 0 17 17" fill="none" xmlns="http://www.w3.org/2000/svg">
<g clip-path="url(#clip0_553_4739)">
<path d="M4.10846 10.6783L2.99283 9.56266C3.81922 8.73627 4.68398 8.11648 5.5871 7.70329C6.49023 7.29009 7.46123 7.0835 8.50012 7.0835C9.53901 7.0835 10.51 7.29009 11.4131 7.70329C12.3163 8.11648 13.181 8.73627 14.0074 9.56266L12.8918 10.6783C12.1716 9.95815 11.4456 9.44461 10.7137 9.13766C9.98172 8.83072 9.24387 8.67725 8.50012 8.67725C7.75637 8.67725 7.01852 8.83072 6.28658 9.13766C5.55464 9.44461 4.82859 9.95815 4.10846 10.6783ZM1.11575 7.68558L0.00012207 6.56995C1.09804 5.44843 2.37599 4.5453 3.83398 3.86058C5.29196 3.17586 6.84734 2.8335 8.50012 2.8335C10.1529 2.8335 11.7083 3.17586 13.1663 3.86058C14.6243 4.5453 15.9022 5.44843 17.0001 6.56995L15.8845 7.68558C14.8456 6.69391 13.7093 5.90294 12.4756 5.31266C11.242 4.72238 9.91679 4.42725 8.50012 4.42725C7.08346 4.42725 5.75828 4.72238 4.5246 5.31266C3.29092 5.90294 2.15464 6.69391 1.11575 7.68558ZM8.50012 15.07L11.121 12.4314C10.7786 12.0891 10.3861 11.8205 9.94335 11.6257C9.50064 11.4309 9.01957 11.3335 8.50012 11.3335C7.98068 11.3335 7.4996 11.4309 7.05689 11.6257C6.61418 11.8205 6.22165 12.0891 5.87929 12.4314L8.50012 15.07Z" fill="#181818"/>
</g>
<defs>
<clipPath id="clip0_553_4739">
<rect width="17" height="17" fill="white"/>
</clipPath>
</defs>
</svg>
