<svg width="19" height="19" viewBox="0 0 19 19" fill="none" xmlns="http://www.w3.org/2000/svg">
<path d="M17.5553 7.77812L17.1001 6.78854L16.1105 6.33333L17.1001 5.87812L17.5553 4.88854L18.0105 5.87812L19.0001 6.33333L18.0105 6.78854L17.5553 7.77812ZM15.0418 4.31458L14.3491 2.85L12.8845 2.15729L14.3491 1.46458L15.0418 0L15.7345 1.46458L17.1991 2.15729L15.7345 2.85L15.0418 4.31458ZM7.12512 17.4167C6.67651 17.4167 6.29717 17.2616 5.9871 16.9516C5.67703 16.6415 5.522 16.2622 5.522 15.8135H8.72825C8.72825 16.2622 8.57321 16.6415 8.26314 16.9516C7.95307 17.2616 7.57373 17.4167 7.12512 17.4167ZM3.91887 14.5865V13.399H10.3314V14.5865H3.91887ZM4.01783 12.1917C3.147 11.6243 2.45759 10.9151 1.9496 10.0641C1.44162 9.21302 1.18762 8.25312 1.18762 7.18437C1.18762 5.57465 1.77477 4.18264 2.94908 3.00833C4.12339 1.83403 5.5154 1.24687 7.12512 1.24687C8.73484 1.24687 10.1269 1.83403 11.3012 3.00833C12.4755 4.18264 13.0626 5.57465 13.0626 7.18437C13.0626 8.25312 12.8119 9.21302 12.3105 10.0641C11.8092 10.9151 11.1164 11.6243 10.2324 12.1917H4.01783ZM4.45325 11.0042H9.81679C10.4501 10.5819 10.9515 10.0344 11.321 9.36146C11.6904 8.68854 11.8751 7.96285 11.8751 7.18437C11.8751 5.87812 11.41 4.7599 10.4798 3.82969C9.5496 2.89948 8.43137 2.43437 7.12512 2.43437C5.81887 2.43437 4.70064 2.89948 3.77043 3.82969C2.84023 4.7599 2.37512 5.87812 2.37512 7.18437C2.37512 7.96285 2.55984 8.68854 2.92929 9.36146C3.29873 10.0344 3.80672 10.5819 4.45325 11.0042Z" fill="#181818"/>
</svg>
