<svg width="28" height="28" viewBox="0 0 28 28" fill="none" xmlns="http://www.w3.org/2000/svg">
<path d="M13.125 23.8875C10.7722 23.6736 8.7743 22.7014 7.13124 20.9708C5.48818 19.2403 4.66666 17.1597 4.66666 14.7292C4.66666 13.4458 4.90971 12.2549 5.39582 11.1562C5.88193 10.0576 6.55277 9.08056 7.40832 8.225L14 1.75L20.5917 8.225C21.3305 8.96389 21.9333 9.79028 22.4 10.7042C22.8667 11.6181 23.1583 12.6097 23.275 13.6792H21.525C21.4278 12.8625 21.1993 12.1139 20.8396 11.4333C20.4798 10.7528 20.0083 10.1208 19.425 9.5375L14 4.2L8.57499 9.5375C7.87499 10.2375 7.34027 11.0153 6.97082 11.8708C6.60138 12.7264 6.41666 13.6792 6.41666 14.7292C6.41666 16.6736 7.06318 18.3361 8.35624 19.7167C9.6493 21.0972 11.2389 21.8944 13.125 22.1083V23.8875ZM15.575 17.7917L14.9917 16.45C15.4778 16.1972 15.9785 15.9931 16.4937 15.8375C17.009 15.6819 17.5389 15.6042 18.0833 15.6042C18.5305 15.6042 18.9632 15.6576 19.3812 15.7646C19.7993 15.8715 20.2125 16.0028 20.6208 16.1583C20.9708 16.3139 21.3354 16.45 21.7146 16.5667C22.0937 16.6833 22.4778 16.7417 22.8667 16.7417C23.3139 16.7417 23.7465 16.6736 24.1646 16.5375C24.5826 16.4014 24.9861 16.2264 25.375 16.0125L25.9583 17.3542C25.4722 17.6069 24.9715 17.8111 24.4562 17.9667C23.941 18.1222 23.4111 18.2 22.8667 18.2C22.4194 18.2 21.9868 18.1465 21.5687 18.0396C21.1507 17.9326 20.7375 17.8014 20.3292 17.6458C19.9792 17.4903 19.6146 17.3542 19.2354 17.2375C18.8562 17.1208 18.4722 17.0625 18.0833 17.0625C17.6361 17.0625 17.2035 17.1306 16.7854 17.2667C16.3674 17.4028 15.9639 17.5778 15.575 17.7917ZM15.575 21.5833L14.9917 20.2417C15.4778 19.9889 15.9785 19.7847 16.4937 19.6292C17.009 19.4736 17.5389 19.3958 18.0833 19.3958C18.5305 19.3958 18.9632 19.4493 19.3812 19.5562C19.7993 19.6632 20.2125 19.7944 20.6208 19.95C20.9708 20.1056 21.3354 20.2417 21.7146 20.3583C22.0937 20.475 22.4778 20.5333 22.8667 20.5333C23.3139 20.5333 23.7465 20.4653 24.1646 20.3292C24.5826 20.1931 24.9861 20.0181 25.375 19.8042L25.9583 21.1458C25.4722 21.3986 24.9715 21.6028 24.4562 21.7583C23.941 21.9139 23.4111 21.9917 22.8667 21.9917C22.4194 21.9917 21.9868 21.9382 21.5687 21.8312C21.1507 21.7243 20.7375 21.5931 20.3292 21.4375C19.9792 21.2819 19.6146 21.1458 19.2354 21.0292C18.8562 20.9125 18.4722 20.8542 18.0833 20.8542C17.6361 20.8542 17.2035 20.9222 16.7854 21.0583C16.3674 21.1944 15.9639 21.3694 15.575 21.5833ZM15.575 25.375L14.9917 24.0333C15.4778 23.7806 15.9785 23.5764 16.4937 23.4208C17.009 23.2653 17.5389 23.1875 18.0833 23.1875C18.5305 23.1875 18.9632 23.241 19.3812 23.3479C19.7993 23.4549 20.2125 23.5861 20.6208 23.7417C20.9708 23.8972 21.3354 24.0333 21.7146 24.15C22.0937 24.2667 22.4778 24.325 22.8667 24.325C23.3139 24.325 23.7465 24.2569 24.1646 24.1208C24.5826 23.9847 24.9861 23.8097 25.375 23.5958L25.9583 24.9375C25.4722 25.1903 24.9715 25.3944 24.4562 25.55C23.941 25.7056 23.4111 25.7833 22.8667 25.7833C22.4194 25.7833 21.9868 25.7299 21.5687 25.6229C21.1507 25.516 20.7375 25.3847 20.3292 25.2292C19.9792 25.0736 19.6146 24.9375 19.2354 24.8208C18.8562 24.7042 18.4722 24.6458 18.0833 24.6458C17.6361 24.6458 17.2035 24.7139 16.7854 24.85C16.3674 24.9861 15.9639 25.1611 15.575 25.375Z" fill="white"/>
</svg>
