<svg width="13" height="12" viewBox="0 0 13 12" fill="none" xmlns="http://www.w3.org/2000/svg">
<path d="M5.90422 7.6623L8.99172 4.8123L8.42297 4.2998L5.94484 6.5873L4.57713 5.3248L3.9813 5.8748L5.90422 7.6623ZM6.50005 10.9873C5.23616 10.6956 4.19797 10.0186 3.38547 8.95605C2.57297 7.89355 2.16672 6.72897 2.16672 5.4623V2.4873L6.50005 0.987305L10.8334 2.4873V5.4623C10.8334 6.72897 10.4271 7.89355 9.61463 8.95605C8.80213 10.0186 7.76394 10.6956 6.50005 10.9873ZM6.50005 10.2123C7.53825 9.89564 8.3846 9.29772 9.03911 8.41855C9.69363 7.53939 10.0209 6.55397 10.0209 5.4623V3.0123L6.50005 1.7873L2.97922 3.0123V5.4623C2.97922 6.55397 3.30647 7.53939 3.96099 8.41855C4.6155 9.29772 5.46186 9.89564 6.50005 10.2123Z" fill="#181818"/>
</svg>
