<svg width="9" height="11" viewBox="0 0 9 11" fill="none" xmlns="http://www.w3.org/2000/svg">
<path d="M0.979218 6.58333C0.979218 7.15208 1.10786 7.68698 1.36516 8.18802C1.62245 8.68906 1.9813 9.1066 2.44172 9.44062C2.40561 9.33229 2.37852 9.2217 2.36047 9.10885C2.34241 8.99601 2.33338 8.88542 2.33338 8.77708C2.33338 8.48819 2.38755 8.21736 2.49588 7.96458C2.60422 7.7118 2.7622 7.4816 2.96984 7.27396L4.50005 5.77083L6.03026 7.27396C6.2379 7.4816 6.39588 7.7118 6.50422 7.96458C6.61255 8.21736 6.66672 8.48819 6.66672 8.77708C6.66672 8.88542 6.65769 8.99601 6.63963 9.10885C6.62158 9.2217 6.5945 9.33229 6.55838 9.44062C7.0188 9.1066 7.37766 8.68906 7.63495 8.18802C7.89224 7.68698 8.02088 7.15208 8.02088 6.58333C8.02088 6.09583 7.91706 5.61962 7.70943 5.15469C7.50179 4.68976 7.20387 4.26319 6.81568 3.875C6.62609 4.01042 6.42748 4.11649 6.21984 4.19323C6.0122 4.26996 5.80456 4.30833 5.59693 4.30833C5.04623 4.30833 4.59033 4.12101 4.22922 3.74635C3.86811 3.3717 3.68755 2.9 3.68755 2.33125V2.06042C3.27227 2.35833 2.89762 2.68785 2.56359 3.04896C2.22956 3.41007 1.94519 3.78698 1.71047 4.17969C1.47575 4.5724 1.29519 4.97413 1.1688 5.3849C1.04241 5.79566 0.979218 6.19514 0.979218 6.58333ZM4.50005 6.90833L3.53859 7.85625C3.4122 7.98264 3.31516 8.12257 3.24745 8.27604C3.17974 8.42951 3.14588 8.59653 3.14588 8.77708C3.14588 9.14722 3.27679 9.46094 3.53859 9.71823C3.8004 9.97552 4.12088 10.1042 4.50005 10.1042C4.87922 10.1042 5.1997 9.97552 5.46151 9.71823C5.72331 9.46094 5.85422 9.14722 5.85422 8.77708C5.85422 8.59653 5.82036 8.42951 5.75266 8.27604C5.68495 8.12257 5.5879 7.98264 5.46151 7.85625L4.50005 6.90833ZM4.50005 0.625V2.4125C4.50005 2.71944 4.60613 2.97674 4.81828 3.18437C5.03043 3.39201 5.28998 3.49583 5.59693 3.49583C5.75943 3.49583 5.91064 3.46198 6.05057 3.39427C6.1905 3.32656 6.31463 3.225 6.42297 3.08958L6.66672 2.79167C7.33477 3.17083 7.8629 3.69896 8.25109 4.37604C8.63929 5.05312 8.83338 5.78889 8.83338 6.58333C8.83338 7.79306 8.41359 8.81771 7.57401 9.65729C6.73443 10.4969 5.70977 10.9167 4.50005 10.9167C3.29033 10.9167 2.26568 10.4969 1.42609 9.65729C0.586509 8.81771 0.166718 7.79306 0.166718 6.58333C0.166718 5.42778 0.554912 4.3151 1.3313 3.24531C2.10769 2.17552 3.16394 1.30208 4.50005 0.625Z" fill="#181818"/>
</svg>
