<svg width="46" height="46" viewBox="0 0 46 46" fill="none" xmlns="http://www.w3.org/2000/svg">
<circle cx="23" cy="23" r="23" fill="#2A43CC"/>
<path d="M13.0835 32.3333C12.6168 32.3333 12.2085 32.1583 11.8585 31.8083C11.5085 31.4583 11.3335 31.05 11.3335 30.5833V15.4167C11.3335 14.95 11.5085 14.5417 11.8585 14.1917C12.2085 13.8417 12.6168 13.6667 13.0835 13.6667H32.9168C33.3835 13.6667 33.7918 13.8417 34.1418 14.1917C34.4918 14.5417 34.6668 14.95 34.6668 15.4167V30.5833C34.6668 31.05 34.4918 31.4583 34.1418 31.8083C33.7918 32.1583 33.3835 32.3333 32.9168 32.3333H13.0835ZM23.0002 23.525L13.0835 17.0208V30.5833H32.9168V17.0208L23.0002 23.525ZM23.0002 21.775L32.8002 15.4167H13.2293L23.0002 21.775ZM13.0835 17.0208V15.4167V30.5833V17.0208Z" fill="white"/>
</svg>
